<?xml version="1.0" encoding="utf-8"?>
<!-- Generator: Adobe Illustrator 26.1.0, SVG Export Plug-In . SVG Version: 6.00 Build 0)  -->
<svg version="1.1" id="Lag_1" xmlns="http://www.w3.org/2000/svg" xmlns:xlink="http://www.w3.org/1999/xlink" x="0px" y="0px"
	 viewBox="0 0 359.3 85" style="enable-background:new 0 0 359.3 85;" xml:space="preserve">
<style type="text/css">
	.st0{fill:#AE3338;}
	.st1{fill:#FFFFFF;}
	.st2{clip-path:url(#SVGID_00000115500739756350646020000014639990881555128510_);fill:#FFFFFF;}
</style>
<rect class="st0" width="359.3" height="85"/>
<path class="st1" d="M43.4,47.3h20.2l-9.3-15.6h-1.6L43.4,47.3z M69,56.6l-3.5-5.9h-24l-3.6,5.9h-4.5l16.9-28.2h6.3l16.8,28.2H69z"
	/>
<polygon class="st1" points="119.5,56.6 119.5,31.9 117.9,31.9 101.5,56.6 98.3,56.6 81.7,31.9 80,31.9 80,56.6 76,56.6 76,28.4 
	83.9,28.4 99.9,52.3 115.6,28.4 123.5,28.4 123.5,56.6 "/>
<g>
	<path class="st1" d="M129,28.4h3.9v13.8c0,4.1,0,6.5,0.1,7.4c0.1,1.1,0.4,1.9,1,2.3c0.5,0.5,1.4,0.8,2.6,0.9c2,0.2,4.9,0.3,8.7,0.3
		c5.2,0,8.8-0.2,10.8-0.5c1.2-0.2,2-0.5,2.5-1c0.5-0.5,0.8-1.4,0.8-2.5c0.1-1.1,0.1-3.4,0.1-7V28.4h3.9v13.8c0,3.8-0.1,6.3-0.2,7.8
		c-0.3,2.4-1.2,4.2-2.8,5.1c-1,0.6-2.2,0.9-3.6,1.1c-1.4,0.2-4.9,0.3-10.5,0.4c-4.9-0.1-7.9-0.1-8.8-0.2c-1,0-2-0.2-3.2-0.4
		c-1.9-0.4-3.3-1.4-4.2-3.1c-0.4-0.8-0.7-1.8-0.8-3c-0.1-1.1-0.2-3.7-0.2-7.7V28.4z"/>
	<path class="st1" d="M193,28.4h8.9v16.8c0,2.7-0.1,4.6-0.4,5.9s-0.8,2.3-1.5,3.1c-1,1.1-2.4,1.8-4.2,2.2c-1.8,0.4-4.8,0.6-8.9,0.6
		c-4.9,0-8.5-0.3-10.7-0.8c-2.7-0.6-4.3-2.2-4.8-4.6c-0.2-1.1-0.4-2.5-0.4-4.3c0-0.8,0-1.8,0.1-3h8.9c0,1.5,0,2.6,0.1,3.1
		c0.1,0.5,0.3,0.9,0.6,1.2c0.7,0.6,2.5,0.9,5.5,0.9c3.2,0,5.1-0.3,5.9-0.9c0.3-0.3,0.5-0.6,0.7-1.1c0.1-0.5,0.2-1.3,0.2-2.5V28.4z"
		/>
	<path class="st1" d="M207.7,28.4h8.9v12.9c0,3,0.2,4.8,0.3,5.6c0.2,1.1,1,1.8,2.2,2.2c1.3,0.3,3.8,0.5,7.6,0.5
		c3.1,0,5.2-0.1,6.4-0.3c1.2-0.2,2-0.5,2.5-1c0.3-0.4,0.6-0.8,0.7-1.3c0.1-0.5,0.2-1.4,0.3-2.6c0.1-1.3,0.1-2.3,0.1-3.1V28.4h8.9
		v12.9c-0.1,4.5-0.2,7.4-0.4,8.8c-0.4,2.4-1.5,4.1-3.5,5.2c-1.1,0.6-2.7,1.1-4.8,1.3c-2.1,0.2-5.4,0.3-10.1,0.3
		c-3.5,0-6.3-0.1-8.2-0.2c-1.9-0.1-3.6-0.3-5-0.7c-3.1-0.7-5-2.5-5.5-5.4c-0.2-1.1-0.3-2.1-0.4-3c-0.1-0.9-0.1-3-0.1-6.3V28.4z"/>
	<path class="st1" d="M251.6,28.4h8.9v12.9c0,3,0.1,4.8,0.3,5.6c0.2,1.1,1,1.8,2.2,2.2c1.3,0.3,3.8,0.5,7.6,0.5
		c3.1,0,5.2-0.1,6.4-0.3c1.2-0.2,2-0.5,2.5-1c0.3-0.4,0.6-0.8,0.7-1.3c0.1-0.5,0.2-1.4,0.3-2.6c0.1-1.3,0.1-2.3,0.1-3.1V28.4h8.9
		v12.9c-0.1,4.5-0.3,7.4-0.5,8.8c-0.4,2.4-1.5,4.1-3.5,5.2c-1.1,0.6-2.7,1.1-4.8,1.3c-2.1,0.2-5.4,0.3-10.1,0.3
		c-3.5,0-6.3-0.1-8.2-0.2c-1.9-0.1-3.6-0.3-5-0.7c-3.1-0.7-5-2.5-5.5-5.4c-0.2-1.1-0.3-2.1-0.4-3c-0.1-0.9-0.1-3-0.1-6.3V28.4z"/>
	<polygon class="st1" points="296.8,28.4 306.2,28.4 306.2,49.4 327,49.4 327,56.6 296.8,56.6 	"/>
</g>
<g>
	<defs>
		<rect id="SVGID_1_" width="359.3" height="85"/>
	</defs>
	<clipPath id="SVGID_00000144337940917661806720000011844697525135691689_">
		<use xlink:href="#SVGID_1_"  style="overflow:visible;"/>
	</clipPath>
	<path style="clip-path:url(#SVGID_00000144337940917661806720000011844697525135691689_);fill:#FFFFFF;" d="M225.9,74.6
		c1.3,0,2.4-0.4,3.2-1.3v-2.7h0v-0.7h-3.4v1.4h1.7v1.3c-0.4,0.2-0.9,0.3-1.5,0.3c-0.6,0-1.1-0.2-1.5-0.7c-0.4-0.4-0.6-1-0.6-1.7
		c0-0.7,0.2-1.3,0.7-1.8c0.4-0.4,1-0.7,1.6-0.7c0.3,0,0.6,0.1,0.9,0.2c0.3,0.1,0.6,0.3,0.9,0.6l0.9-1.3c-0.8-0.7-1.8-1.1-2.9-1.1
		c-1.1,0-2,0.4-2.8,1.1c-0.8,0.8-1.2,1.7-1.2,2.9c0,1.1,0.4,2.1,1.1,2.8C223.9,74.2,224.8,74.6,225.9,74.6 M237.3,70.6
		c0,0.7-0.2,1.2-0.7,1.7c-0.4,0.5-1,0.7-1.6,0.7c-0.1,0-0.2,0-0.2,0l1.9-4.2C237.1,69.4,237.3,69.9,237.3,70.6 M235.4,68.2l-2,4.3
		c-0.5-0.5-0.8-1.1-0.8-1.8c0-0.7,0.2-1.3,0.7-1.8c0.4-0.5,1-0.7,1.6-0.7C235.1,68.1,235.3,68.1,235.4,68.2 M237.9,73.4
		c0.8-0.8,1.2-1.7,1.2-2.8c0-0.7-0.1-1.3-0.4-1.8c-0.3-0.6-0.7-1-1.2-1.4l0.8-1.7h-1.6l-0.5,1.1c-0.4-0.1-0.7-0.1-1.1-0.1
		c-1.1,0-2.1,0.4-2.9,1.1c-0.8,0.8-1.2,1.7-1.2,2.8c0,0.7,0.2,1.4,0.5,1.9c0.3,0.6,0.8,1.1,1.4,1.4l-0.8,1.8h1.5l0.6-1.2
		c0.3,0.1,0.6,0.1,0.9,0.1C236.1,74.5,237.1,74.2,237.9,73.4 M245.7,69.3c0,0.4-0.1,0.7-0.3,0.9c-0.2,0.2-0.6,0.3-1.2,0.3H243v-2.3
		h1.3c0.5,0,0.9,0.1,1.2,0.2C245.6,68.7,245.7,68.9,245.7,69.3 M247.9,74.5l-1.9-2.7c1-0.4,1.5-1.2,1.5-2.4c0-0.9-0.3-1.5-0.8-1.9
		c-0.5-0.4-1.4-0.6-2.6-0.6h-2.9v7.7h1.7V72h1.2l1.7,2.4H247.9z M253.7,74.5h5.7V73h-3.9v-1.6h3.4v-1.5h-3.4v-1.6h3.8v-1.5h-5.5
		V74.5z M267,74.5h1.7v-7.7H267v4.9l-3.8-4.9h-1.6v7.7h1.7v-4.8L267,74.5z M276.7,68.3h3.6v-1.5H275v7.7h1.7v-3h3.4V70h-3.4V68.3z
		 M288.4,70.6c0,0.7-0.2,1.3-0.7,1.7c-0.4,0.5-1,0.7-1.6,0.7s-1.2-0.2-1.6-0.7c-0.4-0.5-0.7-1.1-0.7-1.7c0-0.7,0.2-1.3,0.7-1.8
		c0.4-0.5,1-0.7,1.6-0.7s1.2,0.2,1.6,0.7S288.4,69.9,288.4,70.6 M289,73.4c0.8-0.8,1.2-1.7,1.2-2.8c0-1.1-0.4-2.1-1.2-2.8
		c-0.8-0.8-1.7-1.1-2.9-1.1c-1.1,0-2.1,0.4-2.9,1.1c-0.8,0.8-1.2,1.7-1.2,2.8c0,1.1,0.4,2.1,1.2,2.8s1.7,1.1,2.9,1.1
		C287.2,74.5,288.2,74.2,289,73.4 M296.8,69.3c0,0.4-0.1,0.7-0.3,0.9c-0.2,0.2-0.6,0.3-1.2,0.3h-1.3v-2.3h1.3c0.5,0,0.9,0.1,1.2,0.2
		C296.7,68.7,296.8,68.9,296.8,69.3 M299.1,74.5l-1.9-2.7c1-0.4,1.5-1.2,1.5-2.4c0-0.9-0.3-1.5-0.8-1.9c-0.5-0.4-1.4-0.6-2.6-0.6
		h-2.9v7.7h1.7V72h1.2l1.7,2.4H299.1z M303,69.4c-0.2-0.1-0.3-0.3-0.3-0.5c0-0.2,0.1-0.4,0.2-0.5c0.2-0.1,0.4-0.2,0.7-0.2
		c0.7,0,1.4,0.3,2.1,0.8l0.9-1.3c-0.4-0.3-0.8-0.6-1.3-0.7c-0.5-0.2-1-0.3-1.5-0.3c-0.8,0-1.4,0.2-2,0.6c-0.5,0.4-0.8,1-0.8,1.7
		c0,0.7,0.2,1.3,0.6,1.6c0.4,0.3,1.1,0.6,2,0.8c0.6,0.1,0.9,0.3,1.1,0.4c0.2,0.1,0.3,0.3,0.3,0.5c0,0.2-0.1,0.4-0.3,0.5
		c-0.2,0.1-0.4,0.2-0.7,0.2c-0.7,0-1.5-0.4-2.3-1.1l-1,1.3c1,0.9,2.1,1.4,3.3,1.4c0.8,0,1.5-0.2,2-0.6c0.5-0.4,0.8-1,0.8-1.7
		s-0.2-1.2-0.6-1.6c-0.4-0.4-1-0.6-1.7-0.8C303.6,69.7,303.2,69.5,303,69.4 M314,72.2c-0.7-1-1.2-1.7-1.5-2l3.1-3.4h-2.1l-2.9,3.2
		v-3.2h-1.7v7.7h1.7v-2.2l0.8-0.9l2.3,3h2C315.3,74,314.7,73.2,314,72.2 M317.4,74.5h5.7V73h-3.9v-1.6h3.4v-1.5h-3.4v-1.6h3.8v-1.5
		h-5.5V74.5z M330.4,74.5v-1.5h-3.3v-6.2h-1.7v7.7H330.4z"/>
</g>
</svg>
